<?xml version="1.0" encoding="utf-8" ?><svg xmlns="http://www.w3.org/2000/svg" xmlns:xlink="http://www.w3.org/1999/xlink" width="1024" height="1024" viewBox="0 0 1024 1024"><path fill="#0B0941" d="M521.432 363.829C522.232 343.291 530.377 324.554 545.492 310.504C555.458 301.191 567.672 294.628 580.939 291.458C591.439 288.854 603.112 288.545 613.919 288.745C638.425 289.2 663.649 288.323 688.077 289.111C703.648 289.614 731.098 293.895 745.492 299.51C745.673 320.893 745.688 342.276 745.536 363.659C745.475 381.055 744.712 404.009 745.588 420.963L746.036 421.109C763.899 422.298 785.544 420.669 803.783 421.336C823.003 422.479 845.594 420.787 865.118 421.575C870.381 439.044 874.048 459.036 873.868 477.282C873.635 500.809 874.817 525.539 873.261 548.911C867.61 633.802 806.334 707.972 725.259 732.29C694.612 741.578 669.636 740.497 638.152 740.565L579.359 740.54C562.615 740.707 551.029 739.282 537.437 728.524C518.417 713.537 519.383 693.484 519.986 671.582C520.85 640.187 518.891 607.891 520.135 576.556C521.646 568.691 521.219 557.181 521.411 548.953C521.9 527.983 520.793 506.999 520.985 486.049L521.057 478.06C520.962 474.334 521.061 470.416 521.102 466.679C521.481 432.412 520.946 398.09 521.432 363.829ZM579.916 676.053C579.735 660.191 580.096 643.895 579.708 628.101C575.039 626.738 569.865 626.949 564.971 626.974C552.912 627.044 540.853 627.102 528.802 626.938C527.646 626.922 525.233 627.594 524.222 628.216C517.962 632.063 525.216 637.793 528.793 640.4C543.646 651.219 558.506 661.977 573.022 673.256C574.877 674.694 577.299 676.441 579.363 677.553L579.916 676.053Z"/><path fill="#0B0941" d="M521.432 363.829C522.232 343.291 530.377 324.554 545.492 310.504C555.458 301.191 567.672 294.628 580.939 291.458C591.439 288.854 603.112 288.545 613.919 288.745C638.425 289.2 663.649 288.323 688.077 289.111C703.648 289.614 731.098 293.895 745.492 299.51C745.673 320.893 745.688 342.276 745.536 363.659C745.475 381.055 744.712 404.009 745.588 420.963L746.036 421.109C746.135 433.133 746.104 441.764 745.185 453.832L744.696 452.397C743.569 453.41 741.578 457.871 740.669 459.475C734.936 469.603 728.203 476.057 717.876 481.236C705.594 487.396 694.297 486.126 680.958 486.09L643.355 486.031L520.985 486.049L521.057 478.06C520.962 474.334 521.061 470.416 521.102 466.679C521.481 432.412 520.946 398.09 521.432 363.829Z"/><path fill="#416AF5" d="M521.432 363.829C522.232 343.291 530.377 324.554 545.492 310.504C555.458 301.191 567.672 294.628 580.939 291.458C591.439 288.854 603.112 288.545 613.919 288.745C638.425 289.2 663.649 288.323 688.077 289.111C703.648 289.614 731.098 293.895 745.492 299.51C745.673 320.893 745.688 342.276 745.536 363.659L609.357 363.583C580.644 363.61 550.016 363.12 521.432 363.829Z"/><path fill="#60C2F9" d="M521.057 478.06C524.085 462.128 525.886 452.176 537.901 439.693C546.01 431.244 556.435 425.381 567.867 422.839C577.049 420.78 587.958 421.237 597.496 421.245L627.818 421.277C666.738 421.291 706.724 421.593 745.588 420.963L746.036 421.109C746.135 433.133 746.104 441.764 745.185 453.832L744.696 452.397C743.569 453.41 741.578 457.871 740.669 459.475C734.936 469.603 728.203 476.057 717.876 481.236C705.594 487.396 694.297 486.126 680.958 486.09L643.355 486.031L520.985 486.049L521.057 478.06Z"/><path fill="#C8D7F4" d="M520.985 486.049L643.355 486.031L680.958 486.09C694.297 486.126 705.594 487.396 717.876 481.236C728.203 476.057 734.936 469.603 740.669 459.475C741.578 457.871 743.569 453.41 744.696 452.397L745.185 453.832L745.174 548.935C745.158 559.587 745.803 586.602 743.893 595.621C742.249 603.146 738.412 610.016 732.868 615.363C721.253 626.749 709.493 627.959 694.086 627.62C685.279 627.426 676.013 627.611 667.172 627.601L579.476 627.485C579.454 612.523 577.619 600.5 566.336 589.352C552.672 575.852 538.703 576.383 521.223 576.545L520.135 576.556C521.646 568.691 521.219 557.181 521.411 548.953C521.9 527.983 520.793 506.999 520.985 486.049Z"/><path fill="#416AF5" d="M803.783 421.336C823.003 422.479 845.594 420.787 865.118 421.575C870.381 439.044 874.048 459.036 873.868 477.282C873.635 500.809 874.817 525.539 873.261 548.911C867.61 633.802 806.334 707.972 725.259 732.29C694.612 741.578 669.636 740.497 638.152 740.565L579.359 740.54C579.479 719.801 579.714 698.243 579.363 677.553L579.916 676.053C590.854 675.413 608.371 675.902 619.806 675.909L695.926 675.919C710.318 675.896 734.101 676.649 747.263 673.522C760.963 670.341 773.506 663.405 783.484 653.492C804.364 632.541 803.569 616.336 803.655 588.843L803.724 553.662L803.783 421.336Z"/><path fill="#416AF5" d="M279.676 299.732C289.829 295.211 312.978 291.041 324.287 289.903C343.338 287.984 364.392 288.704 383.743 288.87C396.91 288.984 417.276 288.104 429.712 289.355C437.467 290.074 445.092 291.831 452.38 294.576C482.906 306.256 500.087 331.231 502.145 363.505C502.538 386.677 502.665 409.852 502.526 433.027C502.522 445.501 502.931 460.982 502.433 473.232C502.606 474.525 502.598 475.352 502.616 476.649C502.618 480.118 502.708 482.591 503.003 486.045C503.344 506.326 503.109 526.117 503.058 546.375C503.035 555.669 502.775 567.534 503.446 576.588C484.997 576.47 470.197 575.168 455.873 589.266C447.201 597.782 442.315 609.426 442.311 621.58C442.308 623.507 442.307 625.603 442.417 627.524C441.713 639.083 441.718 664.224 442.288 675.869L442.43 678.229C442.457 698.821 442.275 719.889 442.526 740.447L385.969 740.639C354.272 740.711 334.063 741.68 303.201 733.194C249.722 718.644 204.745 683.52 177.395 635.45C154.232 594.74 149.663 559.807 150.146 513.702C150.503 479.65 149.428 454.832 159.126 421.174C165.305 420.82 174.762 421.218 181.335 421.264C194.09 421.342 206.845 421.35 219.601 421.288C223.178 421.005 228.893 421.452 232.741 421.299C247.225 420.722 265.214 422.17 279.434 421.042C280.259 403.803 279.465 381.383 279.607 363.603C279.715 349.271 279.733 334.938 279.663 320.605C279.65 314.286 279.382 305.854 279.676 299.732Z"/><path fill="#0B0941" d="M279.676 299.732C289.829 295.211 312.978 291.041 324.287 289.903C343.338 287.984 364.392 288.704 383.743 288.87C396.91 288.984 417.276 288.104 429.712 289.355C437.467 290.074 445.092 291.831 452.38 294.576C482.906 306.256 500.087 331.231 502.145 363.505C502.538 386.677 502.665 409.852 502.526 433.027C502.522 445.501 502.931 460.982 502.433 473.232C502.606 474.525 502.598 475.352 502.616 476.649C502.618 480.118 502.708 482.591 503.003 486.045L387.311 486.046L348.433 486.038C333.804 486.025 319.934 487.17 306.442 480.421C299.875 477.204 294.201 472.422 289.918 466.495C286.017 461.133 283.82 455.451 280.758 449.652C280.355 449.434 279.953 449.216 279.55 448.998C279.399 439.681 279.36 430.361 279.434 421.042C280.259 403.803 279.465 381.383 279.607 363.603C279.715 349.271 279.733 334.938 279.663 320.605C279.65 314.286 279.382 305.854 279.676 299.732Z"/><path fill="#416AF5" d="M279.676 299.732C289.829 295.211 312.978 291.041 324.287 289.903C343.338 287.984 364.392 288.704 383.743 288.87C396.91 288.984 417.276 288.104 429.712 289.355C437.467 290.074 445.092 291.831 452.38 294.576C482.906 306.256 500.087 331.231 502.145 363.505L279.607 363.603C279.715 349.271 279.733 334.938 279.663 320.605C279.65 314.286 279.382 305.854 279.676 299.732Z"/><path fill="#60C2F9" d="M279.434 421.042L397.059 421.182L427.094 421.131C435.715 421.096 444.926 420.678 453.238 422.351C475.184 426.766 492.331 440.899 499.241 462.397C499.893 464.425 500.538 467.238 501.248 469.129C502.276 470.631 501.767 471.337 502.433 473.232C502.606 474.525 502.598 475.352 502.616 476.649C502.618 480.118 502.708 482.591 503.003 486.045L387.311 486.046L348.433 486.038C333.804 486.025 319.934 487.17 306.442 480.421C299.875 477.204 294.201 472.422 289.918 466.495C286.017 461.133 283.82 455.451 280.758 449.652C280.355 449.434 279.953 449.216 279.55 448.998C279.399 439.681 279.36 430.361 279.434 421.042Z"/><path fill="#164278" d="M501.248 469.129C502.276 470.631 501.767 471.337 502.433 473.232C502.606 474.525 502.598 475.352 502.616 476.649C501.348 473.912 501.349 472.216 501.248 469.129Z"/><path fill="#C8D7F4" d="M279.55 448.998C279.953 449.216 280.355 449.434 280.758 449.652C283.82 455.451 286.017 461.133 289.918 466.495C294.201 472.422 299.875 477.204 306.442 480.421C319.934 487.17 333.804 486.025 348.433 486.038L387.311 486.046L503.003 486.045C503.344 506.326 503.109 526.117 503.058 546.375C503.035 555.669 502.775 567.534 503.446 576.588C484.997 576.47 470.197 575.168 455.873 589.266C447.201 597.782 442.315 609.426 442.311 621.58C442.308 623.507 442.307 625.603 442.417 627.524C407.854 627.091 373.117 627.895 338.532 627.534C330.085 627.446 319.939 628.195 311.764 626.459C304.142 624.834 297.152 621.042 291.635 615.539C275.344 599.391 280.365 578.575 279.52 557.745C279.358 553.753 279.524 549.575 279.527 545.563L279.55 448.998Z"/><path fill="#0B0941" d="M219.601 421.288C223.178 421.005 228.893 421.452 232.741 421.299C247.225 420.722 265.214 422.17 279.434 421.042C279.36 430.361 279.399 439.681 279.55 448.998L279.527 545.563C279.524 549.575 279.358 553.753 279.52 557.745C280.365 578.575 275.344 599.391 291.635 615.539C297.152 621.042 304.142 624.834 311.764 626.459C319.939 628.195 330.085 627.446 338.532 627.534C373.117 627.895 407.854 627.091 442.417 627.524C441.713 639.083 441.718 664.224 442.288 675.869C409.41 676.316 375.891 675.945 342.957 675.992L311.301 676.044C301.672 676.058 291.756 676.436 282.301 674.588C267.983 671.929 254.646 665.46 243.695 655.861C227.27 641.199 220.477 624.858 220.593 603.006C220.659 590.56 220.52 577.917 220.51 565.456L220.506 469.565C220.507 455.593 221.157 435.333 220.413 421.845L219.601 421.288Z"/><path fill="#0B0941" d="M442.417 627.524C442.307 625.603 442.308 623.507 442.311 621.58C442.315 609.426 447.201 597.782 455.873 589.266C470.197 575.168 484.997 576.47 503.446 576.588L503.458 657.779C503.423 681.249 507.532 708.024 488.385 725.91C473.763 739.569 461.573 740.68 442.526 740.447C442.275 719.889 442.457 698.821 442.43 678.229C461.329 665.534 480.709 650.128 498.976 636.361C502.939 633.375 501.166 627.718 496.588 627.504C490.871 627.237 484.873 627.427 479.077 627.441L442.417 627.524Z"/></svg>